<?xml version="1.0" encoding="utf-8"?>
<!-- Svg Vector Icons : http://www.onlinewebfonts.com/icon -->
<!DOCTYPE svg PUBLIC "-//W3C//DTD SVG 1.1//EN" "http://www.w3.org/Graphics/SVG/1.1/DTD/svg11.dtd">
<svg version="1.1" xmlns="http://www.w3.org/2000/svg" xmlns:xlink="http://www.w3.org/1999/xlink" x="0px" y="0px" viewBox="0 0 1000 1000" enable-background="new 0 0 1000 1000" xml:space="preserve">
<metadata> Svg Vector Icons : http://www.onlinewebfonts.com/icon </metadata>
<g><g transform="translate(0.000000,511.000000) scale(0.100000,-0.100000)"><path d="M2685.8,4408.3c-370.5-122.7-598.8-429.4-694.4-925.1c-71.2-385.2-17.2-1101.8,125.1-1629.4c19.6-73.6,31.9-135,29.5-139.9c-4.9-2.5-139.9-51.5-301.8-105.5C1036.8,1333.6,443,928.7,217.2,506.6c-152.1-292-157-571.7-9.8-863.8c215.9-434.3,775.4-809.8,1602.4-1079.7c169.3-54,311.6-103,314.1-108c4.9-4.9-14.7-110.4-44.2-235.6c-235.6-1008.5-127.6-1862.5,279.7-2220.7c539.9-471.1,1411-213.5,2478.4,733.7l159.5,144.8l216-189c733.7-642.9,1352.1-947.2,1860-912.8c466.2,29.5,765.6,309.2,912.8,851.5c61.4,220.8,58.9,942.3-2.5,1276c-36.8,203.7-90.8,441.7-127.6,566.8c-9.8,31.9,49.1,61.3,289.6,142.3C9146.8-1046.7,9772.6-548.5,9883-3.8c132.5,657.6-515.3,1288.3-1725.1,1676c-282.2,88.3-292,93.2-277.3,154.6c7.4,34.3,34.3,169.3,61.3,296.9c112.9,530,130,1148.4,41.7,1484.6c-240.5,903-1015.9,1096.9-2007.3,500.6c-240.5-144.8-471.1-319-765.6-576.7l-213.5-186.5l-162,144.8c-719,635.5-1268.6,930-1786.4,954.6C2874.8,4452.4,2796.2,4445.1,2685.8,4408.3z M3348.4,4013.2c326.4-105.5,785.2-409.8,1266.2-841.7l117.8-103.1l-225.8-257.7c-122.7-142.3-311.6-375.4-419.6-517.8l-198.8-260.1l-333.7-41.7c-292-36.8-873.6-139.9-986.5-174.2c-46.6-14.7-68.7,54-142.3,417.1c-213.5,1060.1-39.3,1752.1,458.9,1825.7C3012.2,4077,3206,4057.4,3348.4,4013.2z M7277,4008.3c390.2-181.6,493.2-912.8,269.9-1896.8c-27-120.2-56.4-228.2-66.3-238c-7.4-9.8-90.8,0-186.5,19.6c-215.9,46.6-748.4,122.7-1001.2,144.8l-193.9,19.6l-112.9,147.2c-63.8,83.4-225.8,282.2-360.7,441.7c-135,162-269.9,321.5-299.4,358.3l-56.4,66.3l223.3,196.3c539.8,468.7,1040.4,755.8,1408.5,802.4C7019.3,4084.4,7164.1,4059.8,7277,4008.3z M5176.5,2585c196.3-223.3,387.7-461.3,387.7-480.9c0-9.8-260.1-19.6-576.7-19.6l-576.7-2.5l66.3,88.3c171.8,230.7,493.2,591.4,525.1,591.4C5012.1,2761.7,5090.6,2680.8,5176.5,2585z M5821.8,1684.5c58.9-12.3,103.1-61.3,228.2-247.8c206.1-306.7,436.8-699.3,620.8-1042.9L6818.1,114l-85.9-171.8c-250.3-493.2-787.7-1357-866.2-1388.9c-66.3-27-1550.8-44.2-1663.7-19.6c-85.9,19.6-115.3,44.2-215.9,191.4c-166.9,240.5-473.6,758.2-652.7,1096.9l-152.1,287.1l85.9,171.8c135,267.5,441.7,792.6,640.5,1099.3c196.3,299.4,191.4,296.9,454,309.2C4661.2,1704.1,5748.2,1701.7,5821.8,1684.5z M7007.1,1556.9c414.7-71.2,380.3-39.3,301.8-274.8C7225.5,1039.1,7061,622,7036.5,595c-12.3-12.3-49.1,31.9-85.9,98.2c-149.7,262.6-417.2,711.6-483.4,809.8c-36.8,56.4-68.7,110.4-68.7,120.2C6398.5,1645.2,6653.7,1618.2,7007.1,1556.9z M3456.3,1382.6c-78.5-125.1-218.4-358.3-309.2-517.8c-90.8-159.5-174.2-282.2-184-269.9c-22.1,27-186.5,436.8-260.1,655.2c-44.2,130.1-51.5,176.7-29.4,189c17.2,9.8,191.4,49.1,387.7,83.4c196.3,36.8,373,68.7,392.6,73.6C3603.6,1625.6,3603.6,1618.2,3456.3,1382.6z M8099,1287c701.8-233.1,1204.9-557,1357-876c152.1-316.6-2.4-655.2-439.2-957c-230.7-159.5-552.1-319-888.3-439.2c-427-154.6-377.9-166.9-476.1,110.4c-44.2,130-154.6,407.3-242.9,613.5l-159.5,373L7409.5,487c88.3,203.7,201.2,490.8,252.7,638c51.5,144.8,103.1,262.6,115.3,262.6C7787.4,1387.6,7932.2,1343.4,8099,1287z M2347.2,1098c44.2-130.1,154.6-407.3,242.9-611l159.5-375.4l-159.5-373c-88.3-206.1-201.2-493.2-252.7-638c-51.5-147.2-100.6-265-112.9-265s-149.7,41.7-309.2,95.7C1211-838.1,695.7-506.8,543.6-187.8c-24.5,49.1-49.1,149.7-54,220.8c-9.8,108,0,154.6,66.2,284.6c127.6,262.6,400,478.5,893.2,714.1c220.8,105.5,746,306.7,802.4,306.7C2258.8,1338.5,2300.6,1230.5,2347.2,1098z M3289.5-882.2c95.7-162,203.7-341.1,242.9-397.5c36.8-56.4,68.7-108,68.7-115.3c0-7.4-29.4-14.7-66.3-14.7c-95.7,0-853.9,125.1-888.3,147.2c-27,14.7,90.8,360.7,282.2,829.4l41.7,105.5l73.6-130C3083.3-528.9,3193.8-720.3,3289.5-882.2z M7247.5-887.2c58.9-166.9,108-306.7,108-311.6c0-7.4-41.7-24.5-90.8-36.8c-103.1-27-785.2-149.7-836.8-149.7c-19.6,0-7.4,36.8,39.2,105.5c88.4,130,363.2,593.8,473.6,797.5l83.4,152.1l56.4-127.6C7112.6-528.9,7186.2-722.7,7247.5-887.2z M7497.8-1672.4c56.4-193.9,127.6-596.3,154.6-878.5c58.9-630.6-81-1094.4-380.4-1236.7c-137.4-66.2-370.5-73.6-574.2-14.7c-314.1,90.8-765.6,375.4-1204.9,758.2c-193.8,171.8-218.4,201.2-191.4,238c14.7,22.1,115.3,139.9,223.3,257.7c105.5,120.2,279.7,336.2,387.7,478.5l198.8,260.1l336.2,41.7c186.5,24.5,485.8,73.6,665,112.9c181.6,36.8,336.2,68.7,343.5,71.1C7463.5-1584.1,7483.1-1623.3,7497.8-1672.4z M2828.1-1694.5c122.7-22.1,414.7-63.8,647.8-93.2l429.4-54l220.8-282.2c122.7-157,309.2-382.8,414.7-500.6l189-215.9l-152.1-137.4c-939.8-853.9-1715.2-1096.9-2044.1-642.9c-225.8,309.2-260.1,878.5-98.2,1656.3c66.3,323.9,73.6,341.1,130,323.9C2590.1-1647.9,2707.9-1672.4,2828.1-1694.5z M5554.4-1903.1c-66.3-95.7-429.4-527.6-493.2-586.5l-66.3-61.3l-122.7,135c-152.1,162-436.8,515.3-436.8,534.9c0,9.8,260.1,19.6,576.7,22.1C5574-1856.4,5586.3-1856.4,5554.4-1903.1z"/></g></g>
</svg>